<svg id="Layer_1" xmlns="http://www.w3.org/2000/svg" viewBox="0 0 40 35"><style>.st0{fill:#c2c2c2}</style><path class="st0" d="M29.8 15.9v.1c0 .5-.4.9-.9.9h-.8l-2 8c-.1.4-.5.7-.9.7H14.7c-.4 0-.8-.3-.9-.7l-2-8H11c-.6.1-1-.4-1-.9s.4-.9.9-.9H29c.4 0 .8.4.8.8zm-12.7 2c0-.5-.4-.9-.9-.9s-.9.4-.9.9v5c0 .5.4.9.9.9s.9-.4.9-.9v-5zm3.8 0c0-.5-.4-.9-.9-.9s-.9.4-.9.9v5c0 .5.4.9.9.9s.9-.4.9-.9v-5zm3.7 0c0-.5-.4-.9-.9-.9s-.9.4-.9.9v5c0 .5.4.9.9.9s.9-.4.9-.9v-5zM21 10.3c-.1-.1-.1-.3-.1-.5 0-.5.4-.9.9-.9.4 0 .7.2.8.5l2.5 4.8H23l-2-3.9zm-2.1 0l-2.1 3.9h-2.1l2.5-4.8c.2-.3.5-.5.8-.5.5 0 .9.4.9.9.1.2 0 .3 0 .5z"/></svg>