<svg id="Layer_1" xmlns="http://www.w3.org/2000/svg" viewBox="0 0 260 260"><style>.st0{fill:#e43d30}</style><path d="M130 119.9c-2.2 0-4.8.8-6.3-.2-1.6-1-2-3.8-2.6-5.8-2.8-7.3-5.4-14.5-8.1-22-.2-.6-.6-1-1-1.6-.2.4-.6 1-.8 1.4-3.2 8.7-6.5 17.3-9.5 26.2-.6 1.6-1.4 2.2-3 2H76.5c-1.6 0-2.6-.4-2.8-2.2-.8-5-2-10.1-2.8-15.1-.2-1.6-.8-2-2.4-2-4.6.2-9.1 0-13.7 0-1.4 0-2 .4-2.2 1.8-1 5.2-2 10.5-3 15.7-.2 1.4-.8 1.8-2.2 1.8-3 0-6.1-.2-9.1 0-1.8 0-2-.6-1.6-2.2 1.6-6.7 3-13.3 4.6-19.8 5-22.4 10.1-44.6 14.9-67 .4-1.4 1-1.8 2.2-1.8 2.2 0 4.6.2 6.9 0 1.8-.2 2.2.6 2.6 2.2 2 9.7 4.2 19.6 6.5 29.2 4.2 18.6 8.3 37.3 12.5 55.9.2 1.2.4 1.2.8 2.4.2-.4.6-.8.8-1.4 3.8-9.7 7.5-19.6 11.3-29.2 1.8-4.8 3.8-9.5 5.4-14.3.4-.8.4-2.2 0-3-5-13.3-10.3-26.4-15.5-39.7-.6-1.6-.6-2.2 1.2-2 3.2.2 6.7.2 9.9 0 1.6 0 2 .6 2.6 1.8 2.6 7.7 5.4 15.3 8.3 23 .2.4.6.8.8 1.4.2-.4.6-1 .8-1.4 2.8-7.7 5.6-15.3 8.5-23 .4-1.4 1.2-1.8 2.6-1.8 3.2.2 6.7 0 9.9 0 1.6 0 2 .4 1.2 2-5.2 13.1-10.5 26.2-15.9 39.3-.6 1.4-.6 2.6 0 4 5.8 14.5 11.5 29 17.1 43.4.6 1.6.4 2-1.4 2-1.9 0-3.5.2-5.3 0zM61.4 88.5H66c1.4 0 1.8-.4 1.4-1.8-1.8-9.3-3.6-18.6-5.4-28-.2-.8-.4-1.6-.8-2.4-.2.8-.6 1.6-.6 2.2-1.8 9.5-3.6 18.8-5.4 28.2-.2 1.4 0 1.8 1.4 1.6 1.6 0 3.2.2 4.8.2zm78.3 96.4v-43c0-2 .6-2.4 2.4-2.4 7.5.2 14.9-.2 22.4.4 9.5.6 15.5 6.1 18 15.3 2 7.9 2 15.9-.8 23.6-1.4 3.6-3.6 6.7-7.1 8.7-1.6 1-1.8 2-1.2 3.6 4.2 12.3 8.5 24.8 12.7 37.1.6 1.6.2 2-1.4 2-3.2-.2-6.3-.2-9.5 0-1.6 0-2.4-.4-2.8-2-3.4-11.5-7.3-23-10.7-34.5-.6-1.8-1.4-2.4-3.2-2.4-5.2.2-5.2 0-5.2 5v31.3c0 1.8-.4 2.4-2.2 2.4-2.6-.2-5.2 0-7.9 0-3.2 0-2.8.4-2.8-2.8-.7-14.1-.7-28.2-.7-42.3zm12.9-19v12.3c0 .6.8 1.6 1.2 1.6 2.8.2 5.8.2 8.9-.2 3.4-.4 6.1-2.4 6.9-5.8 1.4-5.2 1.4-10.7 0-15.9-.8-3.4-3.2-5.6-7.1-6.1-2.6-.2-5.4-.2-8.1-.4-1.4 0-1.8.4-1.8 1.8.2 4.5 0 8.5 0 12.7z"/><path class="st0" d="M214.1 29.2h24.8c10.3.2 18.2 6.7 20.6 16.7 2.2 9.9-2.4 20.2-11.5 24.2-2.6 1.2-5.8 2-8.7 2-16.9.2-33.7.2-50.6 0-9.3-.2-15.9-4.8-19.2-13.5-3.2-8.7-1.6-16.7 4.8-23.4 3.8-4 8.7-6.1 14.1-6.1 8.5.1 17.2.1 25.7.1zm0 12.7h-24.8c-5.6 0-9.3 5-8.3 10.7 1 4.6 3.8 7.1 9.1 7.1h48.8c3.2 0 5.6-1.6 7.3-4.4 2.8-5.2 0-13.3-7.7-13.1-8.1-.1-16.3-.3-24.4-.3z"/><path d="M14.2 204.5H19c2.4 0 .8 2.4 2 7.1.8 3.2 2.8 5.4 6.3 6.1 1.8.2 3.8.2 5.4 0 3.2-.4 5.6-2.8 5.8-6.1.2-4.6.2-9.1.2-13.7 0-2.6-1.6-4.6-4-5.6-4.8-2.2-12.9-5.4-17.3-7.9-4-2.4-6.7-5.8-7.7-10.3-1.6-6.3-1.8-12.5-.4-18.8 3-11.9 14.1-18.6 26.2-15.7 9.1 2 16.9 10.1 16.7 20.6-.2 5.6 0 5.6-5.6 5.6h-5.8c-1.4 0-1.6-.6-1.6-1.8-.4-2.8-.6-5.4-1.6-8.1-1.2-3.2-4.4-4-7.7-4s-5.8 1.4-7.3 4.4c-1.8 4.4-1.8 9.1-.6 13.7.6 2.6 2.8 4 5.2 5 4 1.6 8.1 3.4 12.1 4.8 7.3 2.8 11.5 8.1 12.3 15.7.8 6.5.6 12.9-.6 19.2-1.6 8.1-7.5 14.1-15.5 15.5-9.1 1.6-17.1-.2-23.2-7.5-4.2-5-5-10.9-4.6-17.1 0-.4.8-1 1.4-1 1.7-.1 3.3-.1 5.1-.1zm47.6-19.6v-43.2c0-1.6.4-2.2 2.2-2.2 6.5.2 12.9 0 19.4.2 9.9.2 17.1 5.6 19.4 14.5 2 8.3 2 16.9.2 25.4-2 8.9-8.9 14.3-18 15.1-2.6.2-5.4.2-8.1.2-1.6 0-2 .4-2 2V228c0 2-.6 2.4-2.4 2.4-2.8-.2-5.6-.2-8.3 0-2 .2-2.2-.6-2.2-2.4-.2-14.5-.2-28.8-.2-43.1zm12.9-18v13.7c0 1.2.4 1.8 1.6 1.8 2.6-.2 5.2 0 7.7-.4 3.6-.4 6.1-2.4 6.9-5.8 1.2-6.3 1.2-12.7-.2-19-.8-3.2-3-5-6.3-5.4-2.6-.2-5.2-.2-7.9-.4-1.4 0-1.8.4-1.8 1.8.2 4.9 0 9.3 0 13.7z"/><path class="st0" d="M214.1 124.2h-25.2c-6.7 0-12.3-2.2-16.5-7.7-8.1-10.1-5.8-30.1 12.5-33.5 2.6-.6 5.4-.4 8.1-.4 1.2 0 1.4.6 1.4 1.6v9.7c0 2.6-2.6.8-7.3 2-5 1.2-7.3 5.2-6.3 10.1.6 2.2 1.6 4 4 4.6 2.2.6 4.2 1.2 6.5 1.2h46c1.2 0 2.2-.2 3.4-.4 4.2-.8 6.3-3.2 6.5-7.5.2-3.8-2.2-7.3-6.1-8.1-5-1.2-7.7.8-7.7-2.2v-9.5c0-.6.8-1.4 1.2-1.4 8.3-.6 15.5 1.2 20.8 8.1 5.4 6.9 5.4 14.7 2.4 22.4-3 7.3-9.3 10.7-16.9 11.1-8.9.1-17.9-.3-26.8-.1z"/><path d="M15 81V44.5c0-2-.4-2.8-2.6-2.8-3.6.2-7.1 0-10.7 0-1.4 0-1.8-.4-1.6-1.8v-9.1c0-1.4.6-1.6 1.8-1.6h39.5c1.4 0 1.8.4 1.8 1.8-.2 3-.2 5.8 0 8.9 0 1.4-.6 1.8-1.8 1.8H30.5c-1.8 0-2.2.4-2.2 2.2v73.2c0 3.2.4 3-3 3h-7.9c-1.6 0-2-.4-2-2C15 105.6 15 93.3 15 81zm226.3 109.7v37.1c0 1.8-.6 2.4-2.2 2.2-2.6-.2-5.4-.2-8.1 0-2 .2-2.6-.4-2.6-2.6v-74c0-1.4-.4-2-2-2h-11.1c-1.4 0-2-.4-2-1.8.2-2.8 0-5.6 0-8.3 0-1.4.2-1.8 1.8-1.8h39.5c1.4 0 1.8.4 1.8 1.8-.2 2.8-.2 5.6 0 8.3 0 1.4-.4 2-1.8 2h-11.1c-1.6 0-2 .6-2 2-.2 12.5-.2 24.8-.2 37.1zm-114.4-5.6v42.8c0 2-.6 2.6-2.6 2.4-3-.2-5.8-.2-8.9 0-1.4 0-1.8-.4-1.8-1.8v-85.9c0-2.8 0-2.8 2.8-2.8 2.6 0 5.4.2 8.1 0 1.8 0 2.2.6 2.2 2.2.2 14.2.2 28.6.2 43.1zm67.2-.4v-42.8c0-2 .6-2.6 2.6-2.6 2.8.2 5.6.2 8.3 0 1.8 0 2.2.6 2.2 2.2v86.1c0 1.8-.4 2.6-2.4 2.4-2.8-.2-5.6-.2-8.7 0-1.8 0-2.2-.4-2.2-2.2.4-14.3.2-28.6.2-43.1zM156.4 74.8V118c0 1.8-.4 2.4-2.2 2.2-2.8-.2-5.8 0-8.9 0-1.4 0-2-.4-2-1.8V31.5c0-1.6.4-2 2-2 3 0 6.3.2 9.3 0 1.6 0 1.8.6 1.8 2v43.3z"/></svg>