<svg id="Layer_1" xmlns="http://www.w3.org/2000/svg" viewBox="0 0 512 512"><style>.st0,.st1{fill-rule:evenodd;clip-rule:evenodd}.st1{fill:#e43d30}</style><path class="st0" d="M256 251c-1.1 0-2.4.4-3.1-.1-.8-.5-1-1.9-1.3-2.9-1.4-3.6-2.7-7.2-4-10.9-.1-.3-.3-.5-.5-.8-.1.2-.3.5-.4.7-1.6 4.3-3.2 8.6-4.7 13-.3.8-.7 1.1-1.5 1h-11c-.8 0-1.3-.2-1.4-1.1-.4-2.5-1-5-1.4-7.5-.1-.8-.4-1-1.2-1-2.3.1-4.5 0-6.8 0-.7 0-1 .2-1.1.9l-1.5 7.8c-.1.7-.4.9-1.1.9-1.5 0-3-.1-4.5 0-.9 0-1-.3-.8-1.1.8-3.3 1.5-6.6 2.3-9.8 2.5-11.1 5-22.1 7.4-33.2.2-.7.5-.9 1.1-.9 1.1 0 2.3.1 3.4 0 .9-.1 1.1.3 1.3 1.1 1 4.8 2.1 9.7 3.2 14.5 2.1 9.2 4.1 18.5 6.2 27.7.1.6.2.6.4 1.2.1-.2.3-.4.4-.7 1.9-4.8 3.7-9.7 5.6-14.5.9-2.4 1.9-4.7 2.7-7.1.2-.4.2-1.1 0-1.5-2.5-6.6-5.1-13.1-7.7-19.7-.3-.8-.3-1.1.6-1 1.6.1 3.3.1 4.9 0 .8 0 1 .3 1.3.9 1.3 3.8 2.7 7.6 4.1 11.4.1.2.3.4.4.7.1-.2.3-.5.4-.7l4.2-11.4c.2-.7.6-.9 1.3-.9 1.6.1 3.3 0 4.9 0 .8 0 1 .2.6 1-2.6 6.5-5.2 13-7.9 19.5-.3.7-.3 1.3 0 2 2.9 7.2 5.7 14.4 8.5 21.5.3.8.2 1-.7 1-.9 0-1.7.1-2.6 0zm-34-15.6h2.3c.7 0 .9-.2.7-.9-.9-4.6-1.8-9.2-2.7-13.9-.1-.4-.2-.8-.4-1.2-.1.4-.3.8-.3 1.1-.9 4.7-1.8 9.3-2.7 14-.1.7 0 .9.7.8.8 0 1.6.1 2.4.1zm38.8 47.8v-21.3c0-1 .3-1.2 1.2-1.2 3.7.1 7.4-.1 11.1.2 4.7.3 7.7 3 8.9 7.6 1 3.9 1 7.9-.4 11.7-.7 1.8-1.8 3.3-3.5 4.3-.8.5-.9 1-.6 1.8 2.1 6.1 4.2 12.3 6.3 18.4.3.8.1 1-.7 1-1.6-.1-3.1-.1-4.7 0-.8 0-1.2-.2-1.4-1-1.7-5.7-3.6-11.4-5.3-17.1-.3-.9-.7-1.2-1.6-1.2-2.6.1-2.6 0-2.6 2.5v15.5c0 .9-.2 1.2-1.1 1.2-1.3-.1-2.6 0-3.9 0-1.6 0-1.4.2-1.4-1.4-.3-7-.3-14-.3-21zm6.4-9.4v6.1c0 .3.4.8.6.8 1.4.1 2.9.1 4.4-.1 1.7-.2 3-1.2 3.4-2.9.7-2.6.7-5.3 0-7.9-.4-1.7-1.6-2.8-3.5-3-1.3-.1-2.7-.1-4-.2-.7 0-.9.2-.9.9.1 2.2 0 4.2 0 6.3z"/><path class="st1" d="M297.7 206H310c5.1.1 9 3.3 10.2 8.3 1.1 4.9-1.2 10-5.7 12-1.3.6-2.9 1-4.3 1-8.4.1-16.7.1-25.1 0-4.6-.1-7.9-2.4-9.5-6.7-1.6-4.3-.8-8.3 2.4-11.6 1.9-2 4.3-3 7-3h12.7zm0 6.3h-12.3c-2.8 0-4.6 2.5-4.1 5.3.5 2.3 1.9 3.5 4.5 3.5H310c1.6 0 2.8-.8 3.6-2.2 1.4-2.6 0-6.6-3.8-6.5-4 0-8.1-.1-12.1-.1z"/><path class="st0" d="M198.6 292.9h2.4c1.2 0 .4 1.2 1 3.5.4 1.6 1.4 2.7 3.1 3 .9.1 1.9.1 2.7 0 1.6-.2 2.8-1.4 2.9-3 .1-2.3.1-4.5.1-6.8 0-1.3-.8-2.3-2-2.8-2.4-1.1-6.4-2.7-8.6-3.9-2-1.2-3.3-2.9-3.8-5.1-.8-3.1-.9-6.2-.2-9.3 1.5-5.9 7-9.2 13-7.8 4.5 1 8.4 5 8.3 10.2-.1 2.8 0 2.8-2.8 2.8h-2.9c-.7 0-.8-.3-.8-.9-.2-1.4-.3-2.7-.8-4-.6-1.6-2.2-2-3.8-2-1.6 0-2.9.7-3.6 2.2-.9 2.2-.9 4.5-.3 6.8.3 1.3 1.4 2 2.6 2.5 2 .8 4 1.7 6 2.4 3.6 1.4 5.7 4 6.1 7.8.4 3.2.3 6.4-.3 9.5-.8 4-3.7 7-7.7 7.7-4.5.8-8.5-.1-11.5-3.7-2.1-2.5-2.5-5.4-2.3-8.5 0-.2.4-.5.7-.5.8-.1 1.6-.1 2.5-.1zm23.6-9.7v-21.4c0-.8.2-1.1 1.1-1.1 3.2.1 6.4 0 9.6.1 4.9.1 8.5 2.8 9.6 7.2 1 4.1 1 8.4.1 12.6-1 4.4-4.4 7.1-8.9 7.5-1.3.1-2.7.1-4 .1-.8 0-1 .2-1 1v15.4c0 1-.3 1.2-1.2 1.2-1.4-.1-2.8-.1-4.1 0-1 .1-1.1-.3-1.1-1.2-.1-7.2-.1-14.3-.1-21.4zm6.4-8.9v6.8c0 .6.2.9.8.9 1.3-.1 2.6 0 3.8-.2 1.8-.2 3-1.2 3.4-2.9.6-3.1.6-6.3-.1-9.4-.4-1.6-1.5-2.5-3.1-2.7-1.3-.1-2.6-.1-3.9-.2-.7 0-.9.2-.9.9.1 2.4 0 4.6 0 6.8z"/><path class="st1" d="M297.7 253.1h-12.5c-3.3 0-6.1-1.1-8.2-3.8-4-5-2.9-14.9 6.2-16.6 1.3-.3 2.7-.2 4-.2.6 0 .7.3.7.8v4.8c0 1.3-1.3.4-3.6 1-2.5.6-3.6 2.6-3.1 5 .3 1.1.8 2 2 2.3 1.1.3 2.1.6 3.2.6h22.8c.6 0 1.1-.1 1.7-.2 2.1-.4 3.1-1.6 3.2-3.7.1-1.9-1.1-3.6-3-4-2.5-.6-3.8.4-3.8-1.1v-4.7c0-.3.4-.7.6-.7 4.1-.3 7.7.6 10.3 4 2.7 3.4 2.7 7.3 1.2 11.1-1.5 3.6-4.6 5.3-8.4 5.5-4.4 0-8.9-.2-13.3-.1z"/><path class="st0" d="M199 231.7v-18.1c0-1-.2-1.4-1.3-1.4-1.8.1-3.5 0-5.3 0-.7 0-.9-.2-.8-.9v-4.5c0-.7.3-.8.9-.8h19.6c.7 0 .9.2.9.9-.1 1.5-.1 2.9 0 4.4 0 .7-.3.9-.9.9h-5.4c-.9 0-1.1.2-1.1 1.1v36.3c0 1.6.2 1.5-1.5 1.5h-3.9c-.8 0-1-.2-1-1-.2-6.2-.2-12.3-.2-18.4zm112.2 54.4v18.4c0 .9-.3 1.2-1.1 1.1-1.3-.1-2.7-.1-4 0-1 .1-1.3-.2-1.3-1.3v-36.7c0-.7-.2-1-1-1h-5.5c-.7 0-1-.2-1-.9.1-1.4 0-2.8 0-4.1 0-.7.1-.9.9-.9h19.6c.7 0 .9.2.9.9-.1 1.4-.1 2.8 0 4.1 0 .7-.2 1-.9 1h-5.5c-.8 0-1 .3-1 1-.1 6.2-.1 12.3-.1 18.4zm-56.7-2.8v21.2c0 1-.3 1.3-1.3 1.2-1.5-.1-2.9-.1-4.4 0-.7 0-.9-.2-.9-.9v-42.6c0-1.4 0-1.4 1.4-1.4 1.3 0 2.7.1 4 0 .9 0 1.1.3 1.1 1.1.1 7.1.1 14.2.1 21.4zm33.3-.2v-21.2c0-1 .3-1.3 1.3-1.3 1.4.1 2.8.1 4.1 0 .9 0 1.1.3 1.1 1.1v42.7c0 .9-.2 1.3-1.2 1.2-1.4-.1-2.8-.1-4.3 0-.9 0-1.1-.2-1.1-1.1.2-7.1.1-14.2.1-21.4zm-18.7-54.5V250c0 .9-.2 1.2-1.1 1.1-1.4-.1-2.9 0-4.4 0-.7 0-1-.2-1-.9v-43.1c0-.8.2-1 1-1 1.5 0 3.1.1 4.6 0 .8 0 .9.3.9 1v21.5z"/></svg>