<?xml version="1.0" standalone="no"?>
<!DOCTYPE svg PUBLIC "-//W3C//DTD SVG 1.1//EN" "http://www.w3.org/Graphics/SVG/1.1/DTD/svg11.dtd" >
<svg xmlns="http://www.w3.org/2000/svg">
<metadata>Generated by IcoMoon</metadata>
<defs>
<font id="csd-icon" horiz-adv-x="1024">
<font-face units-per-em="1024" ascent="960" descent="-64" />
<missing-glyph horiz-adv-x="1024" />
<glyph unicode="&#x20;" horiz-adv-x="512" d="" />
<glyph unicode="&#xe900;" glyph-name="sound" d="M512 312c0-8-4.8-14.4-11.2-17.6-3.2-1.6-4.8-1.6-8-1.6-4.8 0-9.6 1.6-12.8 4.8l-108.8 89.6h-57.6c-11.2 0-19.2 9.6-19.2 19.2v78.4c0 11.2 9.6 19.2 19.2 19.2h57.6l108.8 89.6c6.4 4.8 14.4 6.4 20.8 3.2s11.2-9.6 11.2-17.6v-267.2zM588.8 342.4c-1.6 0-1.6 0 0 0-6.4 0-11.2 1.6-16 6.4l-3.2 3.2c-6.4 6.4-8 17.6-1.6 25.6 14.4 20.8 22.4 43.2 22.4 68.8 0 27.2-9.6 51.2-25.6 72-6.4 8-6.4 19.2 1.6 27.2l3.2 3.2c3.2 3.2 9.6 6.4 14.4 6.4s11.2-3.2 14.4-8c24-28.8 35.2-64 35.2-100.8 0-35.2-11.2-67.2-32-94.4-1.6-6.4-8-8-12.8-9.6zM670.4 281.6c-3.2-4.8-8-6.4-14.4-6.4 0 0 0 0-1.6 0-4.8 0-9.6 1.6-14.4 6.4l-3.2 3.2c-8 8-8 19.2-1.6 27.2 32 38.4 49.6 86.4 49.6 136 0 51.2-19.2 100.8-52.8 140.8-6.4 8-6.4 19.2 0 27.2l3.2 3.2c3.2 3.2 9.6 6.4 14.4 6.4s11.2-3.2 14.4-6.4c41.6-46.4 64-107.2 64-169.6 1.6-64-19.2-121.6-57.6-168z" />
<glyph unicode="&#xe901;" glyph-name="pencil" d="M537.6 556.8l-187.2-187.2v-83.2h84.8l187.2 187.2v24l-59.2 59.2h-25.6zM574.4 473.6l-139.2-139.2h-33.6v36.8l136 136h32l4.8-33.6zM638.4 609.6h-33.6l-33.6-33.6 67.2-65.6 35.2 36.8v27.2z" />
<glyph unicode="&#xe902;" glyph-name="comment" d="M688 192l-113.6 113.6h-244.8c-30.4 0-62.4 20.8-62.4 54.4v284.8c0 33.6 24 59.2 54.4 59.2h380.8c30.4 0 54.4-27.2 54.4-59.2v-283.2c0-33.6-32-54.4-62.4-54.4h-6.4v-115.2zM321.6 672c-12.8 0-22.4-12.8-22.4-27.2v-283.2c0-14.4 17.6-22.4 30.4-22.4h257.6l68.8-68.8v68.8h38.4c12.8 0 30.4 8 30.4 22.4v283.2c0 16-9.6 27.2-22.4 27.2h-380.8zM382.4 478.4c-17.6 0-33.6 16-33.6 35.2s14.4 35.2 33.6 35.2c17.6 0 33.6-16 33.6-35.2 0-20.8-16-35.2-33.6-35.2zM510.4 478.4c-17.6 0-33.6 16-33.6 35.2s14.4 35.2 33.6 35.2c17.6 0 33.6-16 33.6-35.2 0-20.8-14.4-35.2-33.6-35.2zM643.2 478.4c-17.6 0-33.6 16-33.6 35.2s14.4 35.2 33.6 35.2c17.6 0 33.6-16 33.6-35.2 0-20.8-16-35.2-33.6-35.2z" />
<glyph unicode="&#xe903;" glyph-name="share" d="M657.6 510.4c-22.4 0-41.6 9.6-54.4 27.2l-166.4-67.2c1.6-6.4 3.2-14.4 3.2-22.4 0-4.8 0-9.6-1.6-12.8l158.4-83.2c12.8 20.8 35.2 33.6 60.8 33.6 40 0 72-35.2 72-76.8 0-43.2-32-76.8-72-76.8s-72 33.6-72 75.2l-166.4 86.4c-12.8-14.4-30.4-22.4-51.2-22.4-40 0-72 35.2-72 76.8s32 76.8 72 76.8c16 0 32-6.4 43.2-16l174.4 70.4c0 3.2-1.6 4.8-1.6 8 0 43.2 32 76.8 72 76.8s72-35.2 72-76.8c1.6-41.6-30.4-76.8-70.4-76.8z" />
<glyph unicode="&#xe904;" glyph-name="links" d="M782.4 537.6l-126.4-126.4c-19.2-19.2-52.8-19.2-72 0l-17.6 17.6 36.8 36.8c9.6-9.6 25.6-9.6 36.8 0l89.6 89.6c9.6 9.6 9.6 25.6 0 36.8l-73.6 72c-9.6 9.6-25.6 9.6-36.8 0l-89.6-89.6c-9.6-9.6-9.6-25.6 0-36.8l-36.8-36.8-17.6 17.6c-19.2 19.2-19.2 52.8 0 72l126.4 126.4c19.2 19.2 52.8 19.2 72 0l108.8-108.8c19.2-17.6 19.2-49.6 0-70.4zM422.4 358.4c-9.6 9.6-9.6 25.6 0 36.8l144 144c9.6 9.6 25.6 9.6 36.8 0 9.6-9.6 9.6-25.6 0-36.8l-144-144c-11.2-11.2-27.2-11.2-36.8 0zM422.4 430.4v0c-9.6 9.6-25.6 9.6-36.8 0l-89.6-89.6c-9.6-9.6-9.6-25.6 0-36.8l72-72c9.6-9.6 25.6-9.6 36.8 0l89.6 89.6c9.6 9.6 9.6 25.6 0 36.8v0l36.8 36.8 17.6-17.6c19.2-19.2 19.2-52.8 0-72l-126.4-126.4c-19.2-19.2-52.8-19.2-72 0l-108.8 108.8c-19.2 19.2-19.2 52.8 0 72l126.4 126.4c19.2 19.2 52.8 19.2 72 0l17.6-17.6-35.2-38.4z" />
<glyph unicode="&#xe905;" glyph-name="pics" d="M776 368l-30.4-107.2h-1.6l-32-116.8-209.6 54.4h-3.2l-217.6 57.6v1.6l-59.2 14.4 11.2 40 108.8 392 11.2 41.6 385.6-99.2v1.6l105.6-27.2-68.8-252.8zM790.4 590.4l-406.4 105.6-80-289.6 406.4-105.6 80 289.6zM427.2 505.6l27.2-44.8 70.4 64 35.2-60.8 94.4 80 24-187.2-312 80 60.8 68.8zM448 548.8c-17.6 4.8-28.8 22.4-24 40s22.4 27.2 40 22.4c17.6-4.8 28.8-22.4 24-40s-22.4-27.2-40-22.4zM638.4 699.2l-9.6-3.2-84.8 22.4 126.4 32 19.2-70.4-49.6 14.4-1.6 4.8zM233.6 593.6l27.2-100.8-22.4-83.2-59.2 214.4 128 33.6-12.8-48-60.8-16zM310.4 148.8l-22.4 83.2 171.2-44.8-148.8-38.4z" />
<glyph unicode="&#xe906;" glyph-name="tag" d="M392 108.8l-251.2 299.2 459.2 380.8 284.8-17.6-33.6-281.6-459.2-380.8zM208 401.6l190.4-225.6 406.4 337.6 25.6 212.8-216 12.8-406.4-337.6zM694.4 526.4c-48 0-86.4 38.4-86.4 86.4s38.4 86.4 86.4 86.4c48 0 86.4-38.4 86.4-86.4s-38.4-86.4-86.4-86.4zM694.4 660.8c-27.2 0-49.6-22.4-49.6-48 0-27.2 22.4-48 49.6-48s49.6 22.4 49.6 48c0 25.6-22.4 48-49.6 48z" />
<glyph unicode="&#xe907;" glyph-name="video" d="M180.8 193.6v508.8l168-131.2v24c0 44.8 35.2 83.2 80 83.2h334.4c44.8 0 80-36.8 80-83.2v-292.8c0-44.8-35.2-83.2-80-83.2h-334.4c-43.2 0-80 36.8-80 83.2v24l-168-132.8zM396.8 424v-123.2c0-19.2 14.4-35.2 32-35.2h334.4c17.6 0 32 16 32 35.2v292.8c0 19.2-14.4 35.2-32 35.2h-334.4c-17.6 0-32-16-32-35.2v-123.2l-168 131.2v-310.4l168 132.8z" />
<glyph unicode="&#xe908;" glyph-name="loading" d="M792 451.2c0-110.4-65.6-209.6-164.8-254.4-3.2-1.6-8-1.6-11.2-1.6-9.6 0-20.8 6.4-24 16-6.4 12.8 0 28.8 12.8 35.2 81.6 36.8 134.4 116.8 134.4 206.4 0 60.8-24 116.8-65.6 158.4l3.2-54.4c1.6-14.4-11.2-27.2-25.6-28.8 0 0-1.6 0-1.6 0-14.4 0-25.6 11.2-27.2 25.6l-6.4 115.2c0 14.4 11.2 27.2 25.6 28.8l115.2 8c14.4 1.6 27.2-9.6 28.8-25.6 1.6-14.4-9.6-27.2-25.6-28.8l-48-3.2c51.2-54.4 80-123.2 80-196.8zM396.8 700.8c-100.8-44.8-164.8-145.6-164.8-254.4 0-73.6 28.8-144 80-195.2l-48-3.2c-14.4-1.6-25.6-14.4-25.6-28.8 1.6-14.4 12.8-25.6 27.2-25.6 0 0 1.6 0 1.6 0l115.2 8c14.4 1.6 25.6 12.8 25.6 28.8l-6.4 115.2c0 14.4-12.8 25.6-28.8 25.6-14.4 0-25.6-12.8-25.6-28.8l3.2-54.4c-41.6 41.6-65.6 97.6-65.6 158.4 0 88 52.8 169.6 134.4 206.4 12.8 6.4 19.2 22.4 12.8 35.2-4.8 12.8-20.8 17.6-35.2 12.8z" />
<glyph unicode="&#xe909;" glyph-name="cartbasket" d="M798.4 486.4v0c0-3.2 0-3.2 0-3.2v0 0 0c0-14.4-11.2-25.6-25.6-25.6h-22.4l-57.6-232c-3.2-11.2-14.4-20.8-25.6-20.8v0 0h-305.6c-11.2 0-22.4 8-25.6 20.8v0l-57.6 232h-22.4c-17.6-3.2-28.8 11.2-28.8 25.6s11.2 25.6 25.6 25.6h524.8c9.6 1.6 20.8-9.6 20.8-22.4v0zM430.4 428.8c0 14.4-11.2 25.6-25.6 25.6s-25.6-11.2-25.6-25.6v-144c0-14.4 11.2-25.6 25.6-25.6s25.6 11.2 25.6 25.6v144zM540.8 428.8c0 14.4-11.2 25.6-25.6 25.6s-25.6-11.2-25.6-25.6v-144c0-14.4 11.2-25.6 25.6-25.6s25.6 11.2 25.6 25.6v144zM648 428.8c0 14.4-11.2 25.6-25.6 25.6s-25.6-11.2-25.6-25.6v-144c0-14.4 11.2-25.6 25.6-25.6s25.6 11.2 25.6 25.6v144zM544 649.6v0c-3.2 3.2-3.2 8-3.2 14.4 0 14.4 11.2 25.6 25.6 25.6 11.2 0 20.8-6.4 22.4-14.4v0l72-139.2h-60.8l-56 113.6zM483.2 649.6l-60.8-113.6h-60.8l72 139.2c6.4 8 14.4 14.4 22.4 14.4 14.4 0 25.6-11.2 25.6-25.6 4.8-6.4 1.6-9.6 1.6-14.4v0z" />
<glyph unicode="&#xe90a;" glyph-name="arrow-left" d="M598.4 204.8l-246.4 246.4 246.4 246.4 36.8-36.8-208-208 209.6-209.6z" />
<glyph unicode="&#xe90b;" glyph-name="arrow-right" d="M387.2 243.2l209.6 209.6-208 208 36.8 36.8 246.4-246.4-246.4-246.4z" />
<glyph unicode="&#xe90c;" glyph-name="arrow-up" d="M720 320l-209.6 209.6-208-208-36.8 36.8 246.4 246.4 246.4-246.4z" />
<glyph unicode="&#xe90d;" glyph-name="cartbag" d="M688 603.2h-76.8l-24 124.8h-139.2l-24-124.8h-76.8l-70.4-385.6h483.2l-72 385.6zM483.2 684.8h70.4l16-83.2h-102.4l16 83.2zM382.4 560h32l-11.2-57.6 41.6-8 12.8 65.6h118.4l12.8-65.6 41.6 8-9.6 57.6h32l54.4-299.2h-380.8l56 299.2z" />
<glyph unicode="&#xe90e;" glyph-name="close" d="M691.2 233.6l-177.6 177.6-176-176-40 40 176 176-176 177.6 41.6 41.6 177.6-177.6 176 176 40-40-176-176 177.6-177.6z" />
<glyph unicode="&#xe90f;" glyph-name="email" d="M716.8 649.6h-409.6c-36.8 0-65.6-28.8-65.6-65.6v-273.6c0-36.8 28.8-65.6 65.6-65.6h409.6c36.8 0 65.6 28.8 65.6 65.6v273.6c0 36.8-28.8 65.6-65.6 65.6zM300.8 619.2c0 0 1.6 0 1.6 0 1.6 0 3.2 1.6 4.8 1.6h409.6c1.6 0 3.2 0 4.8-1.6 0 0 1.6 0 1.6 0l4.8-1.6-216-184-1.6 1.6-214.4 184h4.8zM272 304c0 0 0 1.6 0 1.6 0 1.6-1.6 3.2-1.6 4.8v273.6c0 3.2 1.6 8 1.6 11.2l1.6 3.2 3.2-1.6 145.6-124.8-150.4-171.2v3.2zM726.4 276.8c-3.2-1.6-6.4-1.6-11.2-1.6h-408c-3.2 0-6.4 1.6-9.6 1.6l-3.2 1.6 1.6 3.2 148.8 171.2 57.6-49.6c4.8-4.8 14.4-4.8 19.2 0l57.6 49.6 1.6-1.6 150.4-171.2-4.8-3.2zM753.6 312c0-1.6 0-3.2-1.6-4.8 0 0 0-1.6 0-1.6l-1.6-4.8-150.4 171.2 148.8 128 1.6-3.2c1.6-3.2 1.6-6.4 1.6-11.2v-273.6z" />
<glyph unicode="&#xe910;" glyph-name="facebook" d="M632 596.8h-44.8c-35.2 0-41.6-16-41.6-38.4v-49.6h83.2l-11.2-78.4h-72v-200h-86.4v200h-72v78.4h72v57.6c0 67.2 43.2 104 107.2 104 30.4 0 57.6-1.6 64-3.2l1.6-70.4z" />
<glyph unicode="&#xe911;" glyph-name="instagram" d="M672 656h-320c-27.2 0-48-20.8-48-48v-320c0-27.2 20.8-48 48-48h320c27.2 0 48 20.8 48 48v320c0 25.6-22.4 48-48 48zM512 528c44.8 0 80-35.2 80-80 0-46.4-40-84.8-89.6-80-36.8 4.8-65.6 33.6-70.4 70.4-4.8 48 33.6 89.6 80 89.6zM672 304c0-9.6-6.4-16-16-16h-288c-8 0-16 6.4-16 16v176h36.8c-3.2-9.6-4.8-20.8-4.8-32 0-70.4 57.6-128 128-128s128 57.6 128 128c0 11.2-1.6 22.4-4.8 32h36.8v-176zM672 544c0-9.6-6.4-16-16-16h-48c-9.6 0-16 6.4-16 16v48c0 9.6 6.4 16 16 16h48c9.6 0 16-6.4 16-16v-48z" />
<glyph unicode="&#xe912;" glyph-name="menu" d="M254.4 323.2h513.6v-56h-513.6v56zM254.4 476.8h513.6v-56h-513.6v56zM254.4 632h513.6v-56h-513.6v56z" />
<glyph unicode="&#xe913;" glyph-name="minus" d="M241.6 480h540.8v-56h-540.8v56z" />
<glyph unicode="&#xe914;" glyph-name="mobile" d="M502.4 668.8c-3.2-3.2-4.8-6.4-4.8-9.6s1.6-8 4.8-9.6c4.8-4.8 14.4-4.8 20.8 0 3.2 3.2 4.8 6.4 4.8 9.6s-1.6 8-4.8 9.6c-6.4 4.8-16 4.8-20.8 0zM478.4 246.4h70.4c11.2 0 19.2 8 19.2 19.2s-8 19.2-19.2 19.2h-70.4c-11.2 0-19.2-8-19.2-19.2s8-19.2 19.2-19.2zM574.4 728h-124.8c-54.4 0-97.6-43.2-97.6-97.6v-345.6c0-54.4 43.2-97.6 97.6-97.6h124.8c54.4 0 97.6 43.2 97.6 97.6v345.6c0 54.4-43.2 97.6-97.6 97.6zM640 284.8c0-36.8-28.8-65.6-65.6-65.6h-124.8c-36.8 0-65.6 28.8-65.6 65.6v22.4h256v-22.4zM643.2 337.6h-262.4v262.4h260.8v-262.4zM380.8 628.8v3.2c0 36.8 32 67.2 68.8 67.2h124.8c36.8 0 67.2-30.4 68.8-67.2v-3.2h-262.4z" />
<glyph unicode="&#xe915;" glyph-name="pinterest" d="M534.4 350.4c-27.2 1.6-38.4 16-59.2 27.2-11.2-60.8-25.6-118.4-67.2-148.8-12.8 91.2 19.2 160 33.6 233.6-25.6 41.6 3.2 128 56 107.2 65.6-25.6-56-158.4 25.6-174.4 86.4-17.6 120 148.8 67.2 201.6-76.8 76.8-222.4 1.6-204.8-110.4 4.8-27.2 32-35.2 11.2-73.6-49.6 11.2-64 49.6-62.4 100.8 3.2 84.8 76.8 144 148.8 152 92.8 9.6 179.2-33.6 190.4-121.6 14.4-94.4-40-201.6-139.2-193.6z" />
<glyph unicode="&#xe916;" glyph-name="place" d="M497.6 736c-107.2 0-195.2-91.2-195.2-203.2 0-46.4 28.8-123.2 83.2-212.8 41.6-72 83.2-124.8 102.4-140.8l11.2-9.6 11.2 9.6c19.2 16 60.8 70.4 102.4 140.8 52.8 91.2 83.2 166.4 83.2 212.8-3.2 112-89.6 203.2-198.4 203.2zM582.4 336c-33.6-56-65.6-100.8-84.8-121.6-17.6 19.2-48 59.2-83.2 121.6-49.6 83.2-78.4 156.8-78.4 196.8 0 94.4 72 169.6 161.6 169.6s161.6-76.8 161.6-169.6c1.6-40-28.8-113.6-76.8-196.8zM497.6 604.8c-46.4 0-84.8-38.4-84.8-84.8s38.4-84.8 84.8-84.8c46.4 0 84.8 38.4 84.8 84.8 0 48-38.4 84.8-84.8 84.8zM497.6 467.2c-30.4 0-54.4 24-54.4 54.4s24 54.4 54.4 54.4c30.4 0 54.4-24 54.4-54.4s-24-54.4-54.4-54.4z" />
<glyph unicode="&#xe917;" glyph-name="play" d="M699.2 449.6l-276.8 195.2v-392l276.8 196.8zM385.6 187.2v523.2l384-260.8-384-262.4z" />
<glyph unicode="&#xe918;" glyph-name="plus" d="M782.4 424h-241.6v-243.2h-57.6v243.2h-241.6v56h241.6v241.6h57.6v-243.2h241.6z" />
<glyph unicode="&#xe919;" glyph-name="rate" d="M550.4 502.4l-38.4 118.4-38.4-118.4h-123.2l99.2-72-38.4-118.4 100.8 73.6 100.8-73.6-38.4 118.4 99.2 72h-123.2zM678.4 220.8l-166.4 121.6-166.4-121.6 64 195.2-166.4 121.6h204.8l64 195.2 64-195.2h204.8l-166.4-121.6 64-195.2z" />
<glyph unicode="&#xe91a;" glyph-name="search" d="M748.8 185.6l-134.4 134.4c-40-32-89.6-49.6-140.8-49.6-124.8 0-225.6 100.8-225.6 225.6s100.8 225.6 225.6 225.6 225.6-100.8 225.6-225.6c0-48-16-96-44.8-136l134.4-134.4-40-40zM473.6 672c-97.6 0-176-78.4-176-176s78.4-176 176-176 176 78.4 176 176-80 176-176 176z" />
<glyph unicode="&#xe91b;" glyph-name="arrow-down" d="M758.4 537.6l-246.4-246.4-246.4 246.4 36.8 36.8 208-208 209.6 209.6z" />
<glyph unicode="&#xe91c;" glyph-name="shop" d="M244.8 699.2v-507.2h539.2v507.2h-539.2zM494.4 662.4l-6.4-16c-14.4-38.4-54.4-64-97.6-64s-83.2 25.6-97.6 64l-6.4 16h208zM444.8 230.4h-158.4v222.4h158.4v-222.4zM742.4 228.8h-260.8v222.4h260.8v-222.4zM742.4 483.2h-456v108.8l19.2-12.8c25.6-17.6 54.4-27.2 84.8-27.2 44.8 0 88 19.2 113.6 52.8l9.6 12.8 9.6-12.8c25.6-33.6 68.8-52.8 113.6-52.8 30.4 0 59.2 9.6 84.8 25.6l19.2 12.8v-107.2zM736 646.4c-14.4-38.4-54.4-64-97.6-64s-83.2 25.6-97.6 64l-6.4 16h208l-6.4-16z" />
<glyph unicode="&#xe91d;" glyph-name="twitter" d="M686.4 537.6c0-3.2 0-8 0-11.2 0-120-91.2-256-256-256-51.2 0-97.6 14.4-137.6 40 6.4-1.6 14.4-1.6 20.8-1.6 41.6 0 81.6 14.4 112 38.4-40 0-73.6 27.2-84.8 62.4 4.8-1.6 11.2-1.6 17.6-1.6 8 0 16 1.6 24 3.2-41.6 8-72 44.8-72 88 0 0 0 0 0 1.6 12.8-6.4 25.6-11.2 41.6-11.2-24 16-40 43.2-40 75.2 0 16 4.8 32 12.8 44.8 44.8-54.4 110.4-91.2 185.6-94.4-1.6 6.4-1.6 12.8-1.6 20.8 0 49.6 40 89.6 89.6 89.6 25.6 0 49.6-11.2 65.6-28.8 20.8 4.8 40 11.2 57.6 22.4-6.4-20.8-20.8-38.4-40-49.6 17.6 1.6 35.2 6.4 51.2 14.4-12.8-19.2-28.8-33.6-46.4-46.4z" />
<glyph unicode="&#xe91e;" glyph-name="user" d="M598.4 432c41.6 28.8 65.6 75.2 65.6 126.4 0 84.8-68.8 152-152 152-84.8 0-152-68.8-152-152 0-49.6 25.6-97.6 65.6-126.4-100.8-36.8-169.6-132.8-169.6-241.6v-6.4h41.6v6.4c0 118.4 96 214.4 214.4 214.4s214.4-96 214.4-214.4v-6.4h41.6v6.4c0 108.8-68.8 204.8-169.6 241.6zM512 446.4c-60.8 0-110.4 49.6-110.4 110.4s49.6 110.4 110.4 110.4c60.8 0 110.4-49.6 110.4-110.4s-49.6-110.4-110.4-110.4z" />
<glyph unicode="&#xe91f;" glyph-name="like" d="M763.2 656c-28.8 33.6-68.8 51.2-113.6 51.2-62.4 0-100.8-36.8-123.2-67.2-6.4-8-11.2-16-14.4-24-4.8 8-9.6 16-14.4 24-22.4 30.4-60.8 67.2-123.2 67.2-43.2 0-84.8-17.6-113.6-51.2-27.2-32-43.2-73.6-43.2-118.4 0-49.6 19.2-94.4 59.2-142.4 36.8-43.2 89.6-88 150.4-140.8 22.4-19.2 46.4-40 70.4-60.8v0c3.2-3.2 8-4.8 11.2-4.8 4.8 0 8 1.6 11.2 4.8v0c25.6 22.4 48 41.6 70.4 60.8 60.8 51.2 113.6 96 150.4 140.8 41.6 48 59.2 94.4 59.2 142.4 4.8 44.8-9.6 88-36.8 118.4zM572.8 281.6c-19.2-16-40-33.6-60.8-52.8-20.8 19.2-41.6 35.2-60.8 52.8-120 102.4-198.4 168-198.4 257.6 0 36.8 12.8 70.4 33.6 96 22.4 25.6 52.8 40 88 40 46.4 0 76.8-28.8 94.4-52.8 16-22.4 24-43.2 25.6-52.8 1.6-6.4 9.6-11.2 16-11.2s14.4 4.8 16 11.2c3.2 8 11.2 30.4 25.6 52.8 17.6 24 48 52.8 94.4 52.8 33.6 0 65.6-14.4 88-40s33.6-59.2 33.6-96c3.2-89.6-75.2-156.8-195.2-257.6z" />
<glyph unicode="&#xe920;" glyph-name="youtube" d="M732.8 440c-4.8 24-25.6 41.6-48 43.2-56 6.4-112 6.4-166.4 6.4-56 0-112 0-166.4-6.4-24-3.2-43.2-20.8-48-43.2-8-33.6-8-70.4-8-105.6s0-72 8-105.6c4.8-24 25.6-41.6 48-43.2 56-6.4 110.4-6.4 166.4-6.4s112 0 166.4 6.4c24 3.2 43.2 20.8 48 43.2 8 33.6 8 70.4 8 105.6 0 33.6 0 70.4-8 105.6zM422.4 412.8h-32v-171.2h-30.4v171.2h-32v28.8h94.4v-28.8zM502.4 241.6h-27.2v16c-11.2-12.8-20.8-17.6-30.4-17.6-8 0-14.4 3.2-17.6 11.2-1.6 4.8-1.6 11.2-1.6 22.4v116.8h27.2v-108.8c0-6.4 0-9.6 0-11.2 0-4.8 3.2-6.4 6.4-6.4 4.8 0 11.2 4.8 17.6 12.8v113.6h27.2l-1.6-148.8zM604.8 286.4c0-14.4-1.6-24-3.2-30.4-3.2-11.2-11.2-16-20.8-16s-19.2 4.8-27.2 16v-14.4h-27.2v200h27.2v-65.6c8 11.2 17.6 16 27.2 16 11.2 0 17.6-6.4 20.8-16 1.6-6.4 3.2-16 3.2-30.4v-59.2zM707.2 310.4h-54.4v-25.6c0-14.4 4.8-20.8 14.4-20.8 6.4 0 11.2 3.2 12.8 11.2 0 1.6 0 8 0 17.6h27.2v-3.2c0-8 0-14.4 0-17.6-1.6-6.4-3.2-11.2-6.4-16-8-11.2-19.2-16-32-16-14.4 0-25.6 4.8-32 16-6.4 8-8 19.2-8 35.2v52.8c0 16 3.2 27.2 8 35.2 8 9.6 19.2 16 32 16s24-4.8 32-16c6.4-8 8-19.2 8-35.2l-1.6-33.6zM667.2 368c-9.6 0-12.8-6.4-12.8-20.8v-14.4h27.2v14.4c-1.6 14.4-6.4 20.8-14.4 20.8zM566.4 368c-4.8 0-9.6-1.6-12.8-6.4v-91.2c4.8-4.8 9.6-6.4 12.8-6.4 8 0 11.2 6.4 11.2 20.8v64c1.6 12.8-3.2 19.2-11.2 19.2zM582.4 502.4c9.6 0 20.8 6.4 30.4 19.2v-16h27.2v150.4h-27.2v-115.2c-6.4-8-11.2-12.8-17.6-12.8-3.2 0-6.4 1.6-6.4 6.4 0 1.6 0 4.8 0 11.2v110.4h-27.2v-118.4c0-11.2 1.6-17.6 3.2-22.4 1.6-8 8-12.8 17.6-12.8zM392 587.2v-81.6h30.4v81.6l36.8 120h-30.4l-20.8-78.4-20.8 78.4h-32c6.4-19.2 12.8-36.8 19.2-56 9.6-28.8 14.4-49.6 17.6-64zM499.2 502.4c14.4 0 24 4.8 32 16 6.4 8 8 19.2 8 35.2v52.8c0 16-3.2 27.2-8 35.2-8 9.6-17.6 16-32 16-12.8 0-24-4.8-32-16-6.4-8-8-19.2-8-35.2v-52.8c0-16 3.2-27.2 8-35.2 8-9.6 19.2-16 32-16zM486.4 611.2c0 14.4 4.8 20.8 12.8 20.8s12.8-6.4 12.8-20.8v-62.4c0-14.4-4.8-20.8-12.8-20.8s-12.8 6.4-12.8 20.8v62.4z" />
</font>
</defs>
</svg>
